<?xml version="1.0" encoding="UTF-8" standalone="no"?>
<svg
   xmlns:dc="http://purl.org/dc/elements/1.1/"
   xmlns:cc="http://creativecommons.org/ns#"
   xmlns:rdf="http://www.w3.org/1999/02/22-rdf-syntax-ns#"
   xmlns:svg="http://www.w3.org/2000/svg"
   xmlns="http://www.w3.org/2000/svg"
   viewBox="0 0 102.04723 118.67717"
   height="3.1400001cm"
   width="2.7cm"
   xml:space="preserve"
   id="svg2"
   version="1.1"><metadata
     id="metadata8"><rdf:RDF><cc:Work
         rdf:about=""><dc:format>image/svg+xml</dc:format><dc:type
           rdf:resource="http://purl.org/dc/dcmitype/StillImage" /><dc:title></dc:title></cc:Work></rdf:RDF></metadata><defs
     id="defs6"><clipPath
       id="clipPath18"
       clipPathUnits="userSpaceOnUse"><path
         id="path16"
         d="M 0,720 H 1280 V 0 H 0 Z" /></clipPath></defs><g
     transform="matrix(1.3333333,0,0,-1.3333333,0,118.67723)"
     id="g10"><g
       transform="translate(-346.03672,-42.140969)"
       style="fill:#ffffff;stroke:#fff"
       id="g755"><g
         style="fill:#ffffff;stroke:#fff"
         id="g304"
         transform="translate(407.4736,101.9004)"><path
           d="m 0,0 c -15.637,-0.021 -31.274,-0.02 -46.911,-0.001 -0.679,0.001 -0.905,-0.116 -0.903,-0.866 0.029,-11.035 0.018,-22.07 0.023,-33.105 0,-0.726 0.033,-1.454 0.087,-2.178 0.155,-2.055 1.974,-4.206 3.972,-4.726 1.571,-0.408 3.176,-0.258 4.766,-0.234 0.747,0.011 0.919,-0.203 0.916,-0.925 -0.015,-3.616 0.028,-7.232 0.049,-10.847 0,-0.005 0,-0.009 10e-4,-0.014 0,-0.003 -10e-4,-0.006 -10e-4,-0.01 0,-3.009 2.43,-5.448 5.426,-5.448 2.997,0 5.427,2.439 5.427,5.448 0,0.006 0,0.012 0,0.018 -0.015,3.66 0.011,7.321 -0.019,10.981 -0.005,0.615 0.141,0.799 0.773,0.785 1.97,-0.044 3.942,-0.04 5.912,-10e-4 0.583,0.011 0.695,-0.183 0.691,-0.719 -0.021,-3.659 0.006,-7.319 -0.018,-10.979 0,-0.029 0.001,-0.057 0.001,-0.085 h 0.003 c 0,-3.009 2.444,-5.448 5.459,-5.448 3.014,0 5.458,2.439 5.458,5.448 10e-4,0.065 0.003,0.13 0.003,0.196 0,3.639 0.01,7.278 -0.011,10.917 -0.004,0.522 0.129,0.691 0.666,0.667 0.984,-0.046 1.972,-0.026 2.958,-0.009 0.962,0.019 1.923,0.085 2.802,0.541 2.294,1.193 3.318,3.119 3.316,5.668 C 0.838,-23.562 0.835,-12.198 0.858,-0.835 0.86,-0.139 0.665,0.001 0,0"
           style="fill:#ffffff;fill-opacity:1;fill-rule:nonzero;stroke:#fff"
           id="path306" /></g><g
         style="fill:#ffffff;stroke:#fff"
         id="g308"
         transform="translate(395.2041,112.6465)"><path
           d="m 0,0 c -1.104,-0.013 -2.064,0.947 -2.063,2.064 0,1.118 0.959,2.078 2.06,2.064 C 1.085,4.114 1.971,3.192 1.974,2.071 1.976,0.964 1.07,0.014 0,0 m -22.394,0.001 c -1.057,-0.009 -1.98,0.941 -1.992,2.052 -0.011,1.118 0.862,2.041 1.958,2.069 1.108,0.028 2.07,-0.914 2.079,-2.038 0.01,-1.113 -0.933,-2.074 -2.045,-2.083 M 9.42,3.258 C 7.301,6.281 4.611,8.685 1.332,10.406 0.956,10.604 0.846,10.77 1.094,11.213 c 1.133,2.023 2.199,4.084 3.319,6.115 0.307,0.556 0.38,1.029 -0.119,1.49 H 3.589 c -1.205,-1.87 -2.191,-3.862 -3.24,-5.817 -0.851,-1.584 -0.816,-1.624 -2.467,-1.021 -5.228,1.912 -10.527,2.083 -15.907,0.73 -1.12,-0.281 -2.189,-0.688 -3.251,-1.116 -0.444,-0.179 -0.636,-0.127 -0.866,0.307 -0.963,1.82 -1.967,3.619 -2.966,5.42 -0.282,0.508 -0.595,0.998 -0.893,1.497 h -0.705 c -0.5,-0.46 -0.423,-0.937 -0.12,-1.489 1.118,-2.031 2.189,-4.09 3.321,-6.113 0.246,-0.44 0.139,-0.61 -0.24,-0.808 -2.389,-1.25 -4.505,-2.865 -6.307,-4.871 -3.459,-3.849 -5.433,-8.32 -5.681,-13.53 -0.037,-0.755 0.198,-0.878 0.888,-0.878 15.546,0.019 31.092,0.015 46.638,0.014 1.472,0 1.484,10e-4 1.406,1.452 C 12.99,-3.479 11.661,0.062 9.42,3.258"
           style="fill:#ffffff;fill-opacity:1;fill-rule:nonzero;stroke:#fff"
           id="path310" /></g><g
         style="fill:#ffffff;stroke:#fff"
         id="g312"
         transform="translate(357.5522,86.0137)"><path
           d="m 0,0 c 0,3.687 0,7.373 0,11.06 0,1.474 -0.392,2.789 -1.362,3.959 -1.991,2.402 -6.041,2.442 -8.092,0.08 -1.05,-1.211 -1.417,-2.593 -1.415,-4.145 0.01,-7.067 0.002,-14.136 0.008,-21.203 0.001,-0.633 0.012,-1.271 0.088,-1.897 0.422,-3.455 4.279,-5.774 7.793,-4.033 2.133,1.058 2.983,2.94 2.981,5.26 C -0.002,-7.279 0,-3.64 0,0"
           style="fill:#ffffff;fill-opacity:1;fill-rule:nonzero;stroke:#fff"
           id="path314" /></g><g
         style="fill:#ffffff;stroke:#fff"
         id="g316"
         transform="translate(421.3066,97.2852)"><path
           d="m 0,0 c 0,1.433 -0.398,2.711 -1.366,3.808 -1.88,2.131 -5.28,2.368 -7.486,0.562 -1.468,-1.203 -2.008,-2.759 -2.009,-4.575 -0.004,-3.637 -10e-4,-7.274 -0.002,-10.911 0,-1.572 -0.012,-3.144 0.003,-4.716 0.022,-2.439 -0.136,-4.886 0.071,-7.317 0.187,-2.202 1.406,-3.778 3.473,-4.534 3.588,-1.311 7.342,1.231 7.326,5.298 C -0.02,-14.923 0.001,-7.461 0,0"
           style="fill:#ffffff;fill-opacity:1;fill-rule:nonzero;stroke:#fff"
           id="path318" /></g></g></g></svg>