<?xml version="1.0" encoding="UTF-8" standalone="no"?>
<svg
   xmlns:dc="http://purl.org/dc/elements/1.1/"
   xmlns:cc="http://creativecommons.org/ns#"
   xmlns:rdf="http://www.w3.org/1999/02/22-rdf-syntax-ns#"
   xmlns:svg="http://www.w3.org/2000/svg"
   xmlns="http://www.w3.org/2000/svg"
   viewBox="0 0 88.818886 124.72441"
   height="3.3cm"
   width="2.3499999cm"
   xml:space="preserve"
   id="svg2"
   version="1.1"><metadata
     id="metadata8"><rdf:RDF><cc:Work
         rdf:about=""><dc:format>image/svg+xml</dc:format><dc:type
           rdf:resource="http://purl.org/dc/dcmitype/StillImage" /><dc:title></dc:title></cc:Work></rdf:RDF></metadata><defs
     id="defs6"><clipPath
       id="clipPath18"
       clipPathUnits="userSpaceOnUse"><path
         id="path16"
         d="M 0,720 H 1280 V 0 H 0 Z" /></clipPath></defs><g
     transform="matrix(1.3333333,0,0,-1.3333333,0,124.72447)"
     id="g10"><g
       transform="translate(-612.83936,-405.29375)"
       style="fill:#ffffff;stroke:#00112b"
       id="g729"><g
         style="fill:#ffffff;stroke:#00112b"
         id="g64"
         transform="translate(629.0747,498.6123)"><path
           d="M 0,0 H 9.919 V -4.148 H 4.148 v -4.148 h 5.771 v -4.148 H 0 Z"
           style="fill:#ffffff;fill-opacity:1;fill-rule:nonzero;stroke:#00112b"
           id="path66" /></g><g
         style="fill:#ffffff;stroke:#00112b"
         id="g68"
         transform="translate(640.978,498.6123)"><path
           d="M 0,0 H 9.919 V -3.607 H 4.148 v -0.721 h 5.771 v -8.297 H 0 v 3.788 h 5.771 v 0.721 H 0 Z"
           style="fill:#ffffff;fill-opacity:1;fill-rule:nonzero;stroke:#00112b"
           id="path70" /></g><g
         style="fill:#ffffff;stroke:#00112b"
         id="g72"
         transform="translate(652.8809,498.6123)"><path
           d="M 0,0 H 9.92 V -3.607 H 4.148 V -4.328 H 9.92 v -8.297 H 0 v 3.788 h 5.771 v 0.721 H 0 Z"
           style="fill:#ffffff;fill-opacity:1;fill-rule:nonzero;stroke:#00112b"
           id="path74" /></g><g
         style="fill:#ffffff;stroke:#00112b"
         id="g76"
         transform="translate(665.3975,450.2393)"><path
           d="m 0,0 -0.2,-2.199 -1.924,-21.561 -0.124,-1.384 -16.761,-4.646 v -0.001 l -0.038,-0.01 -16.776,4.657 -1.147,12.859 h 3.789 4.432 l 0.583,-6.531 9.121,-2.463 0.008,0.002 v 0 l 9.134,2.465 0.951,10.622 h -10.057 -0.028 -18.299 L -38.07,0 h 19.033 0.028 10.767 l 0.745,8.386 h -11.512 -0.028 -19.764 l -0.744,8.19 h 20.508 0.028 20.488 z m -51.719,30.226 5.954,-66.776 26.716,-7.416 26.79,7.426 5.96,66.766 z"
           style="fill:#ffffff;fill-opacity:1;fill-rule:nonzero;stroke:#00112b"
           id="path78" /></g></g><g
       transform="translate(68.41917,62.153183)"
       style="fill:#ffffff;stroke:#00112b"
       id="g737"><g
         style="fill:#ffffff;stroke:#00112b"
         id="g124"
         transform="translate(909.6602,432.9829)"><path
           d="M 0,0 -16.654,-4.729 -33.308,0 -34.483,12.672 h 8.225 l 0.543,-6.341 9.061,-2.611 8.924,2.572 0.913,10.479 h -9.837 -18.14 l -0.048,-0.156 2.289,24.773 H -16.654 0.382 L 2.191,28.416 h -8.298 l -0.304,4.747 h -10.243 -9.217 l -0.378,-8.293 h 9.595 18.946 z m -16.654,54.895 h -32.541 l 6.098,-66.16 26.443,-7.496 26.433,7.496 6.108,66.16 z"
           style="fill:#ffffff;fill-opacity:1;fill-rule:nonzero;stroke:#00112b"
           id="path126" /></g><g
         style="fill:#ffffff;stroke:#00112b"
         id="g128"
         transform="translate(886.6729,497.6372)"><path
           d="M 0,0 H -5.787 V -4.156 H 0 3.099 4.147 V 8.196 H 0 Z"
           style="fill:#ffffff;fill-opacity:1;fill-rule:nonzero;stroke:#00112b"
           id="path130" /></g><g
         style="fill:#ffffff;stroke:#00112b"
         id="g132"
         transform="translate(905.127,505.7705)"><path
           d="m 0,0 h -10.095 v -4.326 c 1.35,-1.35 2.055,-1.997 4.009,-3.95 -1.143,0 -4.009,-0.004 -4.009,-0.004 v -3.946 H 0 v 3.947 l -4.032,3.953 H 0 Z"
           style="fill:#ffffff;fill-opacity:1;fill-rule:nonzero;stroke:#00112b"
           id="path134" /></g></g><g
       transform="translate(68.41917,62.153183)"
       style="fill:#ffffff;stroke:#00112b"
       id="g755"><g
         style="fill:#ffffff;stroke:#00112b"
         id="g304"
         transform="translate(407.4736,101.9004)"><path
           d="m 0,0 c -15.637,-0.021 -31.274,-0.02 -46.911,-0.001 -0.679,0.001 -0.905,-0.116 -0.903,-0.866 0.029,-11.035 0.018,-22.07 0.023,-33.105 0,-0.726 0.033,-1.454 0.087,-2.178 0.155,-2.055 1.974,-4.206 3.972,-4.726 1.571,-0.408 3.176,-0.258 4.766,-0.234 0.747,0.011 0.919,-0.203 0.916,-0.925 -0.015,-3.616 0.028,-7.232 0.049,-10.847 0,-0.005 0,-0.009 10e-4,-0.014 0,-0.003 -10e-4,-0.006 -10e-4,-0.01 0,-3.009 2.43,-5.448 5.426,-5.448 2.997,0 5.427,2.439 5.427,5.448 0,0.006 0,0.012 0,0.018 -0.015,3.66 0.011,7.321 -0.019,10.981 -0.005,0.615 0.141,0.799 0.773,0.785 1.97,-0.044 3.942,-0.04 5.912,-10e-4 0.583,0.011 0.695,-0.183 0.691,-0.719 -0.021,-3.659 0.006,-7.319 -0.018,-10.979 0,-0.029 0.001,-0.057 0.001,-0.085 h 0.003 c 0,-3.009 2.444,-5.448 5.459,-5.448 3.014,0 5.458,2.439 5.458,5.448 10e-4,0.065 0.003,0.13 0.003,0.196 0,3.639 0.01,7.278 -0.011,10.917 -0.004,0.522 0.129,0.691 0.666,0.667 0.984,-0.046 1.972,-0.026 2.958,-0.009 0.962,0.019 1.923,0.085 2.802,0.541 2.294,1.193 3.318,3.119 3.316,5.668 C 0.838,-23.562 0.835,-12.198 0.858,-0.835 0.86,-0.139 0.665,0.001 0,0"
           style="fill:#ffffff;fill-opacity:1;fill-rule:nonzero;stroke:#00112b"
           id="path306" /></g><g
         style="fill:#ffffff;stroke:#00112b"
         id="g308"
         transform="translate(395.2041,112.6465)"><path
           d="m 0,0 c -1.104,-0.013 -2.064,0.947 -2.063,2.064 0,1.118 0.959,2.078 2.06,2.064 C 1.085,4.114 1.971,3.192 1.974,2.071 1.976,0.964 1.07,0.014 0,0 m -22.394,0.001 c -1.057,-0.009 -1.98,0.941 -1.992,2.052 -0.011,1.118 0.862,2.041 1.958,2.069 1.108,0.028 2.07,-0.914 2.079,-2.038 0.01,-1.113 -0.933,-2.074 -2.045,-2.083 M 9.42,3.258 C 7.301,6.281 4.611,8.685 1.332,10.406 0.956,10.604 0.846,10.77 1.094,11.213 c 1.133,2.023 2.199,4.084 3.319,6.115 0.307,0.556 0.38,1.029 -0.119,1.49 H 3.589 c -1.205,-1.87 -2.191,-3.862 -3.24,-5.817 -0.851,-1.584 -0.816,-1.624 -2.467,-1.021 -5.228,1.912 -10.527,2.083 -15.907,0.73 -1.12,-0.281 -2.189,-0.688 -3.251,-1.116 -0.444,-0.179 -0.636,-0.127 -0.866,0.307 -0.963,1.82 -1.967,3.619 -2.966,5.42 -0.282,0.508 -0.595,0.998 -0.893,1.497 h -0.705 c -0.5,-0.46 -0.423,-0.937 -0.12,-1.489 1.118,-2.031 2.189,-4.09 3.321,-6.113 0.246,-0.44 0.139,-0.61 -0.24,-0.808 -2.389,-1.25 -4.505,-2.865 -6.307,-4.871 -3.459,-3.849 -5.433,-8.32 -5.681,-13.53 -0.037,-0.755 0.198,-0.878 0.888,-0.878 15.546,0.019 31.092,0.015 46.638,0.014 1.472,0 1.484,10e-4 1.406,1.452 C 12.99,-3.479 11.661,0.062 9.42,3.258"
           style="fill:#ffffff;fill-opacity:1;fill-rule:nonzero;stroke:#00112b"
           id="path310" /></g><g
         style="fill:#ffffff;stroke:#00112b"
         id="g312"
         transform="translate(357.5522,86.0137)"><path
           d="m 0,0 c 0,3.687 0,7.373 0,11.06 0,1.474 -0.392,2.789 -1.362,3.959 -1.991,2.402 -6.041,2.442 -8.092,0.08 -1.05,-1.211 -1.417,-2.593 -1.415,-4.145 0.01,-7.067 0.002,-14.136 0.008,-21.203 0.001,-0.633 0.012,-1.271 0.088,-1.897 0.422,-3.455 4.279,-5.774 7.793,-4.033 2.133,1.058 2.983,2.94 2.981,5.26 C -0.002,-7.279 0,-3.64 0,0"
           style="fill:#ffffff;fill-opacity:1;fill-rule:nonzero;stroke:#00112b"
           id="path314" /></g><g
         style="fill:#ffffff;stroke:#00112b"
         id="g316"
         transform="translate(421.3066,97.2852)"><path
           d="m 0,0 c 0,1.433 -0.398,2.711 -1.366,3.808 -1.88,2.131 -5.28,2.368 -7.486,0.562 -1.468,-1.203 -2.008,-2.759 -2.009,-4.575 -0.004,-3.637 -10e-4,-7.274 -0.002,-10.911 0,-1.572 -0.012,-3.144 0.003,-4.716 0.022,-2.439 -0.136,-4.886 0.071,-7.317 0.187,-2.202 1.406,-3.778 3.473,-4.534 3.588,-1.311 7.342,1.231 7.326,5.298 C -0.02,-14.923 0.001,-7.461 0,0"
           style="fill:#ffffff;fill-opacity:1;fill-rule:nonzero;stroke:#00112b"
           id="path318" /></g></g><g
       transform="translate(68.41917,62.153183)"
       style="fill:#ffffff;stroke:#00112b"
       id="g761"><g
         style="fill:#ffffff;stroke:#00112b"
         id="g320"
         transform="translate(630.4419,118.4658)"><path
           d="m 0,0 c 1.679,0 3.037,-1.357 3.037,-3.036 0,-1.68 -1.358,-3.037 -3.037,-3.037 -1.68,0 -3.037,1.357 -3.037,3.037 C -3.037,-1.357 -1.68,0 0,0 m 9.307,5.344 c -17.688,0 -16.583,-7.671 -16.583,-7.671 l 0.02,-7.946 H 9.623 v -2.386 h -23.584 c 0,0 -11.318,1.283 -11.318,-16.564 0,-17.846 9.879,-17.214 9.879,-17.214 h 5.896 v 8.282 c 0,0 -0.318,9.879 9.721,9.879 h 16.741 c 0,0 9.406,-0.152 9.406,9.09 v 15.282 c 0,0 1.428,9.248 -17.057,9.248"
           style="fill:#ffffff;fill-opacity:1;fill-rule:nonzero;stroke:#00112b"
           id="path322" /></g><g
         style="fill:#ffffff;stroke:#00112b"
         id="g324"
         transform="translate(649.5586,59.8418)"><path
           d="m 0,0 c -1.68,0 -3.037,1.357 -3.037,3.036 0,1.68 1.357,3.037 3.037,3.037 1.679,0 3.036,-1.357 3.036,-3.037 C 3.036,1.357 1.679,0 0,0 m -9.308,-5.344 c 17.688,0 16.583,7.67 16.583,7.67 L 7.256,10.273 H -9.623 v 2.386 H 13.96 c 0,0 11.318,-1.284 11.318,16.564 0,17.846 -9.879,17.214 -9.879,17.214 H 9.504 v -8.282 c 0,0 0.318,-9.879 -9.721,-9.879 h -16.741 c 0,0 -9.406,0.152 -9.406,-9.09 V 3.904 c 0,0 -1.428,-9.248 17.056,-9.248"
           style="fill:#ffffff;fill-opacity:1;fill-rule:nonzero;stroke:#00112b"
           id="path326" /></g></g><g
       transform="translate(68.41917,62.153183)"
       style="fill:#ffffff;stroke:#00112b"
       id="g773"><g
         style="fill:#ffffff;stroke:#00112b"
         id="g328"
         transform="translate(895.2812,52.8281)"><path
           d="m 0,0 c -0.407,0 -0.812,0.106 -1.168,0.312 l -3.716,2.2 c -0.554,0.31 -0.284,0.42 -0.101,0.483 0.74,0.259 0.89,0.318 1.68,0.767 0.083,0.047 0.192,0.03 0.277,-0.02 l 2.854,-1.694 c 0.104,-0.056 0.25,-0.056 0.346,0 l 11.131,6.425 c 0.102,0.058 0.17,0.178 0.17,0.3 v 12.845 c 0,0.128 -0.068,0.242 -0.172,0.307 l -11.127,6.42 c -0.104,0.06 -0.239,0.06 -0.343,0 l -11.124,-6.42 c -0.108,-0.062 -0.177,-0.181 -0.177,-0.304 V 8.776 c 0,-0.122 0.067,-0.239 0.173,-0.297 l 3.048,-1.761 c 1.655,-0.828 2.667,0.147 2.667,1.128 v 12.677 c 0,0.181 0.142,0.321 0.323,0.321 h 1.409 c 0.176,0 0.321,-0.14 0.321,-0.321 V 7.841 c 0,-2.207 -1.203,-3.475 -3.296,-3.475 -0.644,0 -1.151,0 -2.567,0.696 l -2.92,1.683 c -0.721,0.418 -1.167,1.198 -1.167,2.031 v 12.845 c 0,0.836 0.446,1.616 1.167,2.028 l 11.143,6.428 c 0.705,0.399 1.641,0.399 2.341,0 L 12.3,23.646 c 0.719,-0.415 1.167,-1.192 1.167,-2.028 V 8.773 C 13.467,7.94 13.019,7.163 12.3,6.745 L 1.172,0.317 C 0.814,0.111 0.411,0.006 -0.002,0.006"
           style="fill:#ffffff;fill-opacity:1;fill-rule:nonzero;stroke:#00112b"
           id="path330" /></g><g
         style="fill:#ffffff;stroke:#00112b"
         id="g332"
         transform="translate(914.7549,75.1367)"><path
           d="m 0,0 c 0,-1.182 -0.967,-2.146 -2.146,-2.146 -1.17,0 -2.145,0.954 -2.145,2.146 0,1.215 0.997,2.146 2.145,2.146 1.157,0 2.143,-0.934 2.143,-2.146 m -3.94,0.006 c 0,-0.998 0.805,-1.806 1.795,-1.806 0.997,0 1.802,0.825 1.802,1.806 0,1 -0.816,1.794 -1.805,1.794 -0.976,0 -1.794,-0.782 -1.794,-1.791 m 0.997,1.195 h 0.827 c 0.284,0 0.842,0 0.842,-0.636 0,-0.442 -0.284,-0.535 -0.454,-0.59 0.331,-0.022 0.353,-0.24 0.398,-0.546 0.023,-0.193 0.059,-0.524 0.125,-0.635 h -0.51 c -0.013,0.111 -0.092,0.724 -0.092,0.758 -0.033,0.135 -0.081,0.203 -0.251,0.203 H -2.482 V -1.206 H -2.948 Z M -2.494,0.15 h 0.373 c 0.307,0 0.365,0.215 0.365,0.34 0,0.329 -0.225,0.329 -0.35,0.329 h -0.385 z m -13.542,-13.608 c -4.87,0 -5.892,2.235 -5.892,4.11 0,0.179 0.145,0.321 0.323,0.321 h 1.438 c 0.158,0 0.292,-0.116 0.317,-0.273 0.218,-1.465 0.864,-2.203 3.809,-2.203 2.347,0 3.344,0.529 3.344,1.774 0,0.715 -0.284,1.248 -3.929,1.605 -3.048,0.301 -4.932,0.972 -4.932,3.41 0,2.245 1.895,3.583 5.069,3.583 3.563,0 5.33,-1.237 5.552,-3.895 0.009,-0.092 -0.025,-0.181 -0.085,-0.248 -0.062,-0.064 -0.149,-0.103 -0.238,-0.103 h -1.446 c -0.15,0 -0.281,0.106 -0.312,0.25 -0.348,1.541 -1.189,2.034 -3.477,2.034 -2.561,0 -2.859,-0.891 -2.859,-1.559 0,-0.812 0.351,-1.048 3.806,-1.505 3.422,-0.454 5.046,-1.095 5.046,-3.5 0,-2.424 -2.022,-3.815 -5.55,-3.815"
           style="fill:#ffffff;fill-opacity:1;fill-rule:nonzero;stroke:#00112b"
           id="path334" /></g><g
         style="fill:#ffffff;stroke:#00112b"
         id="g336"
         transform="translate(956.9072,98.3672)"><path
           d="m 0,0 c 0.438,0.254 0.708,0.725 0.708,1.231 v 3.304 c 0,0.508 -0.27,0.977 -0.709,1.233 l -11.73,6.809 c -0.444,0.257 -0.987,0.257 -1.429,0 L -24.963,5.765 C -25.406,5.509 -25.677,5.041 -25.677,4.531 V -9.094 c 0,-0.512 0.277,-0.986 0.719,-1.24 l 11.728,-6.685 c 0.431,-0.247 0.961,-0.25 1.398,-0.007 l 7.094,3.942 c 0.223,0.126 0.365,0.362 0.365,0.618 0,0.257 -0.137,0.496 -0.359,0.622 l -11.875,6.815 c -0.223,0.126 -0.36,0.362 -0.36,0.616 v 4.274 c 0,0.255 0.134,0.491 0.357,0.618 l 3.695,2.131 c 0.22,0.128 0.49,0.128 0.71,0 l 3.697,-2.131 c 0.221,-0.125 0.357,-0.363 0.357,-0.617 v -3.359 c 0,-0.254 0.136,-0.491 0.357,-0.619 0.22,-0.125 0.493,-0.125 0.713,0.003 z m -39.313,29.858 c -0.22,0.123 -0.49,0.12 -0.708,-0.007 -0.217,-0.128 -0.351,-0.363 -0.351,-0.617 v -18.11 c 0,-0.178 -0.096,-0.343 -0.25,-0.432 -0.153,-0.088 -0.344,-0.088 -0.498,0 l -2.956,1.703 c -0.441,0.254 -0.983,0.254 -1.425,0 L -57.307,5.582 C -57.747,5.328 -58.02,4.857 -58.02,4.351 V -9.28 c 0,-0.51 0.273,-0.978 0.713,-1.235 l 11.806,-6.817 c 0.44,-0.254 0.983,-0.254 1.426,0 l 11.805,6.82 c 0.44,0.257 0.713,0.725 0.713,1.235 v 33.969 c 0,0.518 -0.281,0.994 -0.732,1.246 z m -1.094,-34.662 c 0,-0.127 -0.068,-0.245 -0.178,-0.307 l -4.054,-2.337 c -0.11,-0.064 -0.246,-0.064 -0.356,0 l -4.054,2.337 c -0.111,0.062 -0.178,0.18 -0.178,0.307 v 4.68 c 0,0.128 0.067,0.245 0.175,0.31 L -45,2.526 c 0.111,0.064 0.248,0.064 0.359,0 l 4.054,-2.34 c 0.111,-0.065 0.179,-0.182 0.179,-0.31 z m -55.689,9.523 c 0,0.512 -0.269,0.983 -0.712,1.238 l -11.801,6.79 c -0.2,0.117 -0.423,0.179 -0.649,0.188 h -0.122 c -0.226,-0.009 -0.45,-0.071 -0.652,-0.188 l -11.801,-6.79 c -0.439,-0.256 -0.714,-0.727 -0.714,-1.239 l 0.026,-18.289 c 0,-0.254 0.131,-0.491 0.354,-0.617 0.217,-0.133 0.49,-0.133 0.708,0 l 7.016,4.018 c 0.442,0.264 0.713,0.73 0.713,1.237 v 8.544 c 0,0.51 0.27,0.982 0.711,1.235 l 2.988,1.72 c 0.221,0.128 0.465,0.192 0.713,0.192 0.244,0 0.493,-0.063 0.709,-0.192 l 2.985,-1.719 c 0.442,-0.254 0.713,-0.725 0.713,-1.235 v -8.543 c 0,-0.507 0.274,-0.975 0.715,-1.237 l 7.011,-4.015 c 0.22,-0.131 0.495,-0.131 0.713,0 0.217,0.125 0.354,0.362 0.354,0.616 z"
           style="fill:#ffffff;fill-opacity:1;fill-rule:nonzero;stroke:#00112b"
           id="path338" /></g><g
         style="fill:#ffffff;stroke:#00112b"
         id="g340"
         transform="translate(944.2881,99.0039)"><path
           d="m 0,0 c 0.084,0.05 0.188,0.05 0.273,0 l 2.266,-1.307 c 0.084,-0.048 0.136,-0.138 0.136,-0.236 v -2.616 c 0,-0.098 -0.052,-0.189 -0.136,-0.237 L 0.273,-5.703 c -0.085,-0.05 -0.189,-0.05 -0.273,0 l -2.264,1.307 c -0.086,0.048 -0.138,0.139 -0.138,0.237 v 2.616 c 0,0.098 0.049,0.188 0.135,0.236 z"
           style="fill:#ffffff;fill-opacity:1;fill-rule:nonzero;stroke:#00112b"
           id="path342" /></g><g
         style="fill:#ffffff;stroke:#00112b"
         id="g344"
         transform="translate(879.1426,110.877)"><path
           d="m 0,0 -11.739,-6.775 c -0.44,-0.254 -0.709,-0.722 -0.709,-1.228 v -13.56 c 0,-0.506 0.269,-0.974 0.709,-1.228 L 0,-29.571 c 0.439,-0.253 0.98,-0.253 1.419,0 l 11.737,6.78 c 0.438,0.254 0.707,0.722 0.707,1.228 v 13.56 c 0,0.506 -0.269,0.974 -0.71,1.228 L 1.417,0 C 1.197,0.126 0.952,0.189 0.707,0.189 0.462,0.189 0.217,0.126 -0.004,0"
           style="fill:#ffffff;fill-opacity:1;fill-rule:nonzero;stroke:#00112b"
           id="path346" /></g></g></g></svg>