<?xml version="1.0" encoding="UTF-8" standalone="no"?>
<svg
   xmlns:dc="http://purl.org/dc/elements/1.1/"
   xmlns:cc="http://creativecommons.org/ns#"
   xmlns:rdf="http://www.w3.org/1999/02/22-rdf-syntax-ns#"
   xmlns:svg="http://www.w3.org/2000/svg"
   xmlns="http://www.w3.org/2000/svg"
   viewBox="0 0 88.818886 124.72441"
   height="3.3cm"
   width="2.3499999cm"
   xml:space="preserve"
   id="svg2"
   version="1.1"><metadata
     id="metadata8"><rdf:RDF><cc:Work
         rdf:about=""><dc:format>image/svg+xml</dc:format><dc:type
           rdf:resource="http://purl.org/dc/dcmitype/StillImage" /><dc:title></dc:title></cc:Work></rdf:RDF></metadata><defs
     id="defs6"><clipPath
       id="clipPath18"
       clipPathUnits="userSpaceOnUse"><path
         id="path16"
         d="M 0,720 H 1280 V 0 H 0 Z" /></clipPath></defs><g
     transform="matrix(1.3333333,0,0,-1.3333333,0,124.72447)"
     id="g10"><g
       transform="translate(-859.55734,-413.14469)"
       style="fill:#ffffff;stroke:#fff"
       id="g737"><g
         style="fill:#ffffff;stroke:#fff"
         id="g124"
         transform="translate(909.6602,432.9829)"><path
           d="M 0,0 -16.654,-4.729 -33.308,0 -34.483,12.672 h 8.225 l 0.543,-6.341 9.061,-2.611 8.924,2.572 0.913,10.479 h -9.837 -18.14 l -0.048,-0.156 2.289,24.773 H -16.654 0.382 L 2.191,28.416 h -8.298 l -0.304,4.747 h -10.243 -9.217 l -0.378,-8.293 h 9.595 18.946 z m -16.654,54.895 h -32.541 l 6.098,-66.16 26.443,-7.496 26.433,7.496 6.108,66.16 z"
           style="fill:#ffffff;fill-opacity:1;fill-rule:nonzero;stroke:#fff"
           id="path126" /></g><g
         style="fill:#ffffff;stroke:#fff"
         id="g128"
         transform="translate(886.6729,497.6372)"><path
           d="M 0,0 H -5.787 V -4.156 H 0 3.099 4.147 V 8.196 H 0 Z"
           style="fill:#ffffff;fill-opacity:1;fill-rule:nonzero;stroke:#fff"
           id="path130" /></g><g
         style="fill:#ffffff;stroke:#fff"
         id="g132"
         transform="translate(905.127,505.7705)"><path
           d="m 0,0 h -10.095 v -4.326 c 1.35,-1.35 2.055,-1.997 4.009,-3.95 -1.143,0 -4.009,-0.004 -4.009,-0.004 v -3.946 H 0 v 3.947 l -4.032,3.953 H 0 Z"
           style="fill:#ffffff;fill-opacity:1;fill-rule:nonzero;stroke:#fff"
           id="path134" /></g></g></g></svg>