<?xml version="1.0" encoding="UTF-8" standalone="no"?>
<svg
   xmlns:dc="http://purl.org/dc/elements/1.1/"
   xmlns:cc="http://creativecommons.org/ns#"
   xmlns:rdf="http://www.w3.org/1999/02/22-rdf-syntax-ns#"
   xmlns:svg="http://www.w3.org/2000/svg"
   xmlns="http://www.w3.org/2000/svg"
   viewBox="0 0 166.29919 102.04725"
   height="2.7cm"
   width="4.4000001cm"
   xml:space="preserve"
   id="svg2"
   version="1.1"><metadata
     id="metadata8"><rdf:RDF><cc:Work
         rdf:about=""><dc:format>image/svg+xml</dc:format><dc:type
           rdf:resource="http://purl.org/dc/dcmitype/StillImage" /><dc:title></dc:title></cc:Work></rdf:RDF></metadata><defs
     id="defs6"><clipPath
       id="clipPath18"
       clipPathUnits="userSpaceOnUse"><path
         id="path16"
         d="M 0,720 H 1280 V 0 H 0 Z" /></clipPath></defs><g
     transform="matrix(1.3333333,0,0,-1.3333333,0,102.04732)"
     id="g10"><g
       transform="translate(-833.95192,-53.023832)"
       style="fill:#ffffff;stroke:#fff"
       id="g773"><g
         style="fill:#ffffff;stroke:#fff"
         id="g328"
         transform="translate(895.2812,52.8281)"><path
           d="m 0,0 c -0.407,0 -0.812,0.106 -1.168,0.312 l -3.716,2.2 c -0.554,0.31 -0.284,0.42 -0.101,0.483 0.74,0.259 0.89,0.318 1.68,0.767 0.083,0.047 0.192,0.03 0.277,-0.02 l 2.854,-1.694 c 0.104,-0.056 0.25,-0.056 0.346,0 l 11.131,6.425 c 0.102,0.058 0.17,0.178 0.17,0.3 v 12.845 c 0,0.128 -0.068,0.242 -0.172,0.307 l -11.127,6.42 c -0.104,0.06 -0.239,0.06 -0.343,0 l -11.124,-6.42 c -0.108,-0.062 -0.177,-0.181 -0.177,-0.304 V 8.776 c 0,-0.122 0.067,-0.239 0.173,-0.297 l 3.048,-1.761 c 1.655,-0.828 2.667,0.147 2.667,1.128 v 12.677 c 0,0.181 0.142,0.321 0.323,0.321 h 1.409 c 0.176,0 0.321,-0.14 0.321,-0.321 V 7.841 c 0,-2.207 -1.203,-3.475 -3.296,-3.475 -0.644,0 -1.151,0 -2.567,0.696 l -2.92,1.683 c -0.721,0.418 -1.167,1.198 -1.167,2.031 v 12.845 c 0,0.836 0.446,1.616 1.167,2.028 l 11.143,6.428 c 0.705,0.399 1.641,0.399 2.341,0 L 12.3,23.646 c 0.719,-0.415 1.167,-1.192 1.167,-2.028 V 8.773 C 13.467,7.94 13.019,7.163 12.3,6.745 L 1.172,0.317 C 0.814,0.111 0.411,0.006 -0.002,0.006"
           style="fill:#ffffff;fill-opacity:1;fill-rule:nonzero;stroke:#fff"
           id="path330" /></g><g
         style="fill:#ffffff;stroke:#fff"
         id="g332"
         transform="translate(914.7549,75.1367)"><path
           d="m 0,0 c 0,-1.182 -0.967,-2.146 -2.146,-2.146 -1.17,0 -2.145,0.954 -2.145,2.146 0,1.215 0.997,2.146 2.145,2.146 1.157,0 2.143,-0.934 2.143,-2.146 m -3.94,0.006 c 0,-0.998 0.805,-1.806 1.795,-1.806 0.997,0 1.802,0.825 1.802,1.806 0,1 -0.816,1.794 -1.805,1.794 -0.976,0 -1.794,-0.782 -1.794,-1.791 m 0.997,1.195 h 0.827 c 0.284,0 0.842,0 0.842,-0.636 0,-0.442 -0.284,-0.535 -0.454,-0.59 0.331,-0.022 0.353,-0.24 0.398,-0.546 0.023,-0.193 0.059,-0.524 0.125,-0.635 h -0.51 c -0.013,0.111 -0.092,0.724 -0.092,0.758 -0.033,0.135 -0.081,0.203 -0.251,0.203 H -2.482 V -1.206 H -2.948 Z M -2.494,0.15 h 0.373 c 0.307,0 0.365,0.215 0.365,0.34 0,0.329 -0.225,0.329 -0.35,0.329 h -0.385 z m -13.542,-13.608 c -4.87,0 -5.892,2.235 -5.892,4.11 0,0.179 0.145,0.321 0.323,0.321 h 1.438 c 0.158,0 0.292,-0.116 0.317,-0.273 0.218,-1.465 0.864,-2.203 3.809,-2.203 2.347,0 3.344,0.529 3.344,1.774 0,0.715 -0.284,1.248 -3.929,1.605 -3.048,0.301 -4.932,0.972 -4.932,3.41 0,2.245 1.895,3.583 5.069,3.583 3.563,0 5.33,-1.237 5.552,-3.895 0.009,-0.092 -0.025,-0.181 -0.085,-0.248 -0.062,-0.064 -0.149,-0.103 -0.238,-0.103 h -1.446 c -0.15,0 -0.281,0.106 -0.312,0.25 -0.348,1.541 -1.189,2.034 -3.477,2.034 -2.561,0 -2.859,-0.891 -2.859,-1.559 0,-0.812 0.351,-1.048 3.806,-1.505 3.422,-0.454 5.046,-1.095 5.046,-3.5 0,-2.424 -2.022,-3.815 -5.55,-3.815"
           style="fill:#ffffff;fill-opacity:1;fill-rule:nonzero;stroke:#fff"
           id="path334" /></g><g
         style="fill:#ffffff;stroke:#fff"
         id="g336"
         transform="translate(956.9072,98.3672)"><path
           d="m 0,0 c 0.438,0.254 0.708,0.725 0.708,1.231 v 3.304 c 0,0.508 -0.27,0.977 -0.709,1.233 l -11.73,6.809 c -0.444,0.257 -0.987,0.257 -1.429,0 L -24.963,5.765 C -25.406,5.509 -25.677,5.041 -25.677,4.531 V -9.094 c 0,-0.512 0.277,-0.986 0.719,-1.24 l 11.728,-6.685 c 0.431,-0.247 0.961,-0.25 1.398,-0.007 l 7.094,3.942 c 0.223,0.126 0.365,0.362 0.365,0.618 0,0.257 -0.137,0.496 -0.359,0.622 l -11.875,6.815 c -0.223,0.126 -0.36,0.362 -0.36,0.616 v 4.274 c 0,0.255 0.134,0.491 0.357,0.618 l 3.695,2.131 c 0.22,0.128 0.49,0.128 0.71,0 l 3.697,-2.131 c 0.221,-0.125 0.357,-0.363 0.357,-0.617 v -3.359 c 0,-0.254 0.136,-0.491 0.357,-0.619 0.22,-0.125 0.493,-0.125 0.713,0.003 z m -39.313,29.858 c -0.22,0.123 -0.49,0.12 -0.708,-0.007 -0.217,-0.128 -0.351,-0.363 -0.351,-0.617 v -18.11 c 0,-0.178 -0.096,-0.343 -0.25,-0.432 -0.153,-0.088 -0.344,-0.088 -0.498,0 l -2.956,1.703 c -0.441,0.254 -0.983,0.254 -1.425,0 L -57.307,5.582 C -57.747,5.328 -58.02,4.857 -58.02,4.351 V -9.28 c 0,-0.51 0.273,-0.978 0.713,-1.235 l 11.806,-6.817 c 0.44,-0.254 0.983,-0.254 1.426,0 l 11.805,6.82 c 0.44,0.257 0.713,0.725 0.713,1.235 v 33.969 c 0,0.518 -0.281,0.994 -0.732,1.246 z m -1.094,-34.662 c 0,-0.127 -0.068,-0.245 -0.178,-0.307 l -4.054,-2.337 c -0.11,-0.064 -0.246,-0.064 -0.356,0 l -4.054,2.337 c -0.111,0.062 -0.178,0.18 -0.178,0.307 v 4.68 c 0,0.128 0.067,0.245 0.175,0.31 L -45,2.526 c 0.111,0.064 0.248,0.064 0.359,0 l 4.054,-2.34 c 0.111,-0.065 0.179,-0.182 0.179,-0.31 z m -55.689,9.523 c 0,0.512 -0.269,0.983 -0.712,1.238 l -11.801,6.79 c -0.2,0.117 -0.423,0.179 -0.649,0.188 h -0.122 c -0.226,-0.009 -0.45,-0.071 -0.652,-0.188 l -11.801,-6.79 c -0.439,-0.256 -0.714,-0.727 -0.714,-1.239 l 0.026,-18.289 c 0,-0.254 0.131,-0.491 0.354,-0.617 0.217,-0.133 0.49,-0.133 0.708,0 l 7.016,4.018 c 0.442,0.264 0.713,0.73 0.713,1.237 v 8.544 c 0,0.51 0.27,0.982 0.711,1.235 l 2.988,1.72 c 0.221,0.128 0.465,0.192 0.713,0.192 0.244,0 0.493,-0.063 0.709,-0.192 l 2.985,-1.719 c 0.442,-0.254 0.713,-0.725 0.713,-1.235 v -8.543 c 0,-0.507 0.274,-0.975 0.715,-1.237 l 7.011,-4.015 c 0.22,-0.131 0.495,-0.131 0.713,0 0.217,0.125 0.354,0.362 0.354,0.616 z"
           style="fill:#ffffff;fill-opacity:1;fill-rule:nonzero;stroke:#fff"
           id="path338" /></g><g
         style="fill:#ffffff;stroke:#fff"
         id="g340"
         transform="translate(944.2881,99.0039)"><path
           d="m 0,0 c 0.084,0.05 0.188,0.05 0.273,0 l 2.266,-1.307 c 0.084,-0.048 0.136,-0.138 0.136,-0.236 v -2.616 c 0,-0.098 -0.052,-0.189 -0.136,-0.237 L 0.273,-5.703 c -0.085,-0.05 -0.189,-0.05 -0.273,0 l -2.264,1.307 c -0.086,0.048 -0.138,0.139 -0.138,0.237 v 2.616 c 0,0.098 0.049,0.188 0.135,0.236 z"
           style="fill:#ffffff;fill-opacity:1;fill-rule:nonzero;stroke:#fff"
           id="path342" /></g><g
         style="fill:#ffffff;stroke:#fff"
         id="g344"
         transform="translate(879.1426,110.877)"><path
           d="m 0,0 -11.739,-6.775 c -0.44,-0.254 -0.709,-0.722 -0.709,-1.228 v -13.56 c 0,-0.506 0.269,-0.974 0.709,-1.228 L 0,-29.571 c 0.439,-0.253 0.98,-0.253 1.419,0 l 11.737,6.78 c 0.438,0.254 0.707,0.722 0.707,1.228 v 13.56 c 0,0.506 -0.269,0.974 -0.71,1.228 L 1.417,0 C 1.197,0.126 0.952,0.189 0.707,0.189 0.462,0.189 0.217,0.126 -0.004,0"
           style="fill:#ffffff;fill-opacity:1;fill-rule:nonzero;stroke:#fff"
           id="path346" /></g></g></g></svg>