<?xml version="1.0" encoding="UTF-8" standalone="no"?>
<svg
   xmlns:dc="http://purl.org/dc/elements/1.1/"
   xmlns:cc="http://creativecommons.org/ns#"
   xmlns:rdf="http://www.w3.org/1999/02/22-rdf-syntax-ns#"
   xmlns:svg="http://www.w3.org/2000/svg"
   xmlns="http://www.w3.org/2000/svg"
   viewBox="0 0 47.999991 48"
   height="1.27cm"
   width="1.27cm"
   xml:space="preserve"
   id="svg2"
   version="1.1"><metadata
     id="metadata8"><rdf:RDF><cc:Work
         rdf:about=""><dc:format>image/svg+xml</dc:format><dc:type
           rdf:resource="http://purl.org/dc/dcmitype/StillImage" /><dc:title></dc:title></cc:Work></rdf:RDF></metadata><defs
     id="defs6"><clipPath
       id="clipPath18"
       clipPathUnits="userSpaceOnUse"><path
         id="path16"
         d="M 0,720 H 1280 V 0 H 0 Z" /></clipPath></defs><g
     transform="matrix(1.3333333,0,0,-1.3333333,0,48.000074)"
     id="g10"><g
       transform="matrix(0.51152444,0,0,0.51152444,-309.14178,-27.670855)"
       style="fill:#ffffff;stroke:#fff"
       id="g761"><g
         style="fill:#ffffff;stroke:#fff"
         id="g320"
         transform="translate(630.4419,118.4658)"><path
           d="m 0,0 c 1.679,0 3.037,-1.357 3.037,-3.036 0,-1.68 -1.358,-3.037 -3.037,-3.037 -1.68,0 -3.037,1.357 -3.037,3.037 C -3.037,-1.357 -1.68,0 0,0 m 9.307,5.344 c -17.688,0 -16.583,-7.671 -16.583,-7.671 l 0.02,-7.946 H 9.623 v -2.386 h -23.584 c 0,0 -11.318,1.283 -11.318,-16.564 0,-17.846 9.879,-17.214 9.879,-17.214 h 5.896 v 8.282 c 0,0 -0.318,9.879 9.721,9.879 h 16.741 c 0,0 9.406,-0.152 9.406,9.09 v 15.282 c 0,0 1.428,9.248 -17.057,9.248"
           style="fill:#ffffff;fill-opacity:1;fill-rule:nonzero;stroke:#fff"
           id="path322" /></g><g
         style="fill:#ffffff;stroke:#fff"
         id="g324"
         transform="translate(649.5586,59.8418)"><path
           d="m 0,0 c -1.68,0 -3.037,1.357 -3.037,3.036 0,1.68 1.357,3.037 3.037,3.037 1.679,0 3.036,-1.357 3.036,-3.037 C 3.036,1.357 1.679,0 0,0 m -9.308,-5.344 c 17.688,0 16.583,7.67 16.583,7.67 L 7.256,10.273 H -9.623 v 2.386 H 13.96 c 0,0 11.318,-1.284 11.318,16.564 0,17.846 -9.879,17.214 -9.879,17.214 H 9.504 v -8.282 c 0,0 0.318,-9.879 -9.721,-9.879 h -16.741 c 0,0 -9.406,0.152 -9.406,-9.09 V 3.904 c 0,0 -1.428,-9.248 17.056,-9.248"
           style="fill:#ffffff;fill-opacity:1;fill-rule:nonzero;stroke:#fff"
           id="path326" /></g></g></g></svg>