<?xml version="1.0" encoding="UTF-8" standalone="no"?>
<svg
   xmlns:dc="http://purl.org/dc/elements/1.1/"
   xmlns:cc="http://creativecommons.org/ns#"
   xmlns:rdf="http://www.w3.org/1999/02/22-rdf-syntax-ns#"
   xmlns:svg="http://www.w3.org/2000/svg"
   xmlns="http://www.w3.org/2000/svg"
   id="svg4"
   version="1.1"
   xml:space="preserve"
   viewBox="0 0 24 24"
   height="800px"
   width="800px"
   fill="#000000"><metadata
     id="metadata10"><rdf:RDF><cc:Work
         rdf:about=""><dc:format>image/svg+xml</dc:format><dc:type
           rdf:resource="http://purl.org/dc/dcmitype/StillImage" /><dc:title></dc:title></cc:Work></rdf:RDF></metadata><defs
     id="defs8" /><path
     style="clip-rule:evenodd;fill:#ffffff;fill-rule:evenodd;stroke:#fff00;stroke-width:1.14608896"
     id="path2"
     d="M 22.649459,2.9578459 17.929865,0.68858972 A 1.4119817,1.4119817 0 0 0 17.369427,0.54991295 l -0.04814,-0.002292 h -0.04126 a 1.4303191,1.4303191 0 0 0 -0.987929,0.4171764 L 7.2655063,9.2005927 3.3321289,6.2173231 a 0.95125387,0.95125387 0 0 0 -1.2194387,0.053866 l -1.26184403,1.147235 a 0.95125387,0.95125387 0 0 0 -0.3117362,0.7014065 v 0.00458 c 0,0.25787 0.10314801,0.5168861 0.3117362,0.7059908 L 4.261607,11.942038 0.85084617,15.053669 a 0.95583823,0.95583823 0 0 0 0.001146,1.411982 l 1.26184403,1.147235 a 0.94896169,0.94896169 0 0 0 1.2205847,0.05387 l 3.9333775,-2.983269 9.0265966,8.235795 a 1.4211504,1.4211504 0 0 0 0.875612,0.4103 l 0.01375,0.0011 c 0.02063,0.0023 0.0424,0.0023 0.06303,0.0034 0.02865,0.0011 0.0573,0.0023 0.08596,0.0011 l 0.03094,-0.0011 c 0.193689,-0.0069 0.386232,-0.05157 0.56846,-0.139823 l 4.719594,-2.269256 c 0.493965,-0.23724 0.809139,-0.739227 0.809139,-1.28935 V 4.2483422 c 0,-0.5512688 -0.315174,-1.0521097 -0.811431,-1.2904963 z M 17.723568,17.133821 10.879125,11.940892 17.723568,6.7479623 Z" /></svg>