<?xml version="1.0" encoding="UTF-8" standalone="no"?>
<svg
   xmlns:dc="http://purl.org/dc/elements/1.1/"
   xmlns:cc="http://creativecommons.org/ns#"
   xmlns:rdf="http://www.w3.org/1999/02/22-rdf-syntax-ns#"
   xmlns:svg="http://www.w3.org/2000/svg"
   xmlns="http://www.w3.org/2000/svg"
   viewBox="0 0 86.929124 120.94489"
   height="3.2cm"
   width="2.3cm"
   xml:space="preserve"
   id="svg2"
   version="1.1"><metadata
     id="metadata8"><rdf:RDF><cc:Work
         rdf:about=""><dc:format>image/svg+xml</dc:format><dc:type
           rdf:resource="http://purl.org/dc/dcmitype/StillImage" /><dc:title></dc:title></cc:Work></rdf:RDF></metadata><defs
     id="defs6"><clipPath
       id="clipPath18"
       clipPathUnits="userSpaceOnUse"><path
         id="path16"
         d="M 0,720 H 1280 V 0 H 0 Z" /></clipPath></defs><g
     transform="matrix(1.3333333,0,0,-1.3333333,0,120.94494)"
     id="g10"><g
       transform="translate(-351.86684,-406.97618)"
       style="fill:#ffffff;stroke:##fff"
       id="g719"><g
         style="fill:#ffffff;stroke:##fff"
         id="g44"
         transform="translate(358.5181,497.335)"><path
           d="M 0,0 H 4.047 V -3.998 H 7.749 V 0 h 4.047 V -12.107 H 7.749 v 4.054 H 4.047 v -4.054 H 0 Z"
           style="fill:#ffffff;fill-opacity:1;fill-rule:nonzero;stroke:##fff"
           id="path46" /></g><g
         style="fill:#ffffff;stroke:##fff"
         id="g48"
         transform="translate(375.6357,493.3198)"><path
           d="M 0,0 H -3.563 V 4.015 H 7.611 V 0 H 4.047 V -8.092 H 0 Z"
           style="fill:#ffffff;fill-opacity:1;fill-rule:nonzero;stroke:##fff"
           id="path50" /></g><g
         style="fill:#ffffff;stroke:##fff"
         id="g52"
         transform="translate(385.0205,497.335)"><path
           d="M 0,0 H 4.22 L 6.815,-4.254 9.408,0 h 4.221 V -12.107 H 9.6 v 6.001 L 6.815,-10.411 H 6.746 l -2.787,4.305 v -6.001 H 0 Z"
           style="fill:#ffffff;fill-opacity:1;fill-rule:nonzero;stroke:##fff"
           id="path54" /></g><g
         style="fill:#ffffff;stroke:##fff"
         id="g56"
         transform="translate(400.6641,497.335)"><path
           d="m 0,0 h 4.048 v -8.105 h 5.691 v -4.002 H 0 Z"
           style="fill:#ffffff;fill-opacity:1;fill-rule:nonzero;stroke:##fff"
           id="path58" /></g><g
         style="fill:#ffffff;stroke:##fff"
         id="g60"
         transform="translate(404.1348,464.2817)"><path
           d="m 0,0 -0.363,-4.037 -0.159,-1.79 h -0.026 -19.182 -0.028 -11.238 l 0.728,-8.154 h 10.51 0.028 16.337 2.146 l -0.194,-2.139 -1.872,-20.964 -0.12,-1.346 -16.297,-4.517 v -10e-4 l -0.037,-0.01 -16.312,4.528 -1.115,12.504 h 3.684 4.309 l 0.567,-6.351 8.869,-2.395 0.007,0.002 v 0.001 l 8.882,2.397 0.924,10.327 H -19.73 -19.758 -37.55 L -39.508,0 l -0.19,2.136 h 19.94 0.028 19.92 z m -51.535,15.409 5.789,-64.929 25.977,-7.211 26.048,7.221 5.796,64.919 z"
           style="fill:#ffffff;fill-opacity:1;fill-rule:nonzero;stroke:##fff"
           id="path62" /></g></g></g></svg>